<?xml version="1.0" encoding="UTF-8"?>
<svg version="1.1" xmlns="http://www.w3.org/2000/svg" width="512" height="512">
<path d="M0 0 C13.07487202 11.17475949 23.48716877 23.73075315 33 38 C33 38.99 33 39.98 33 41 C32.2879541 41.40613525 31.5759082 41.81227051 30.84228516 42.23071289 C27.43615601 44.17399863 24.03046111 46.11804391 20.625 48.0625 C19.68794724 48.59747101 19.68794724 48.59747101 18.73196411 49.14324951 C11.72535018 53.14425102 4.72334459 57.15287606 -2.26171875 61.19140625 C-2.83887634 61.52501663 -3.41603394 61.85862701 -4.01068115 62.2023468 C-6.74382849 63.78267034 -9.47586646 65.36487324 -12.20654297 66.94946289 C-18.74980281 70.73696905 -25.3448304 74.41273518 -32 78 C-32.51103271 77.25830566 -33.02206543 76.51661133 -33.54858398 75.75244141 C-45.33095611 58.80258326 -60.98850405 46.62244415 -81.53271484 42.51904297 C-102.71675163 38.75433967 -123.19176194 42.57008887 -141 55 C-143.20273049 56.83314484 -145.32540261 58.70970493 -147.40625 60.6796875 C-149 62 -149 62 -151 62 C-151.25394531 62.57105469 -151.50789063 63.14210938 -151.76953125 63.73046875 C-153.14308918 66.26392004 -154.78546953 68.14889363 -156.6875 70.3125 C-168.00627151 84.28603792 -173.22678681 103.15372402 -172 121 C-170.14592982 137.78869056 -164.78702724 154.62598957 -152.265625 166.66796875 C-151 168 -151 168 -151 170 C-150.42894531 170.25394531 -149.85789062 170.50789062 -149.26953125 170.76953125 C-146.73607996 172.14308918 -144.85110637 173.78546953 -142.6875 175.6875 C-133.19448459 183.37698229 -121.93574162 187.72565899 -110 190 C-108.2675 190.3403125 -108.2675 190.3403125 -106.5 190.6875 C-83.60240431 192.73192819 -63.32271422 185.94336026 -45.53515625 171.42578125 C-40.40469536 166.51666536 -35.18753631 160.37507261 -32 154 C-28.76879704 154.65406544 -26.28005757 155.81984478 -23.421875 157.44921875 C-22.52017578 157.9606543 -21.61847656 158.47208984 -20.68945312 158.99902344 C-19.71943359 159.5562207 -18.74941406 160.11341797 -17.75 160.6875 C-16.73873047 161.2640332 -15.72746094 161.84056641 -14.68554688 162.43457031 C1.65127332 171.77061513 17.90604137 181.25077506 34 191 C29.42631755 199.42675256 24.29648361 206.77818856 18 214 C16.9171875 215.26650391 16.9171875 215.26650391 15.8125 216.55859375 C-10.01599846 246.12300003 -46.88515681 263.96114782 -86 267 C-112.98883604 268.37792248 -138.68144817 263.80992474 -163 252 C-163.62471191 251.70254883 -164.24942383 251.40509766 -164.89306641 251.09863281 C-190.54815534 238.74840785 -210.60084277 218.63932506 -226 195 C-226.97646484 193.51886719 -226.97646484 193.51886719 -227.97265625 192.0078125 C-248.1082989 159.62566282 -252.74057036 118.02549292 -244.38183594 81.28271484 C-241.50347957 69.52837893 -237.58602876 58.73105525 -232 48 C-231.4328125 46.87078125 -230.865625 45.7415625 -230.28125 44.578125 C-212.57244402 10.28743707 -180.5736978 -16.0223071 -144.01318359 -27.98168945 C-94.18021941 -43.35728207 -40.0466551 -33.65370266 0 0 Z " fill="#FEFEFE" transform="translate(331,188)"/>
<path d="M0 0 C4.62 0 9.24 0 14 0 C14.33 3.63 14.66 7.26 15 11 C20.94 11.33 26.88 11.66 33 12 C33 8.04 33 4.08 33 0 C37.95 0 42.9 0 48 0 C48 3.96 48 7.92 48 12 C51.96 12 55.92 12 60 12 C60 16.62 60 21.24 60 26 C56.04 26 52.08 26 48 26 C48 32.27 48 38.54 48 45 C51.96 45 55.92 45 60 45 C60 49.62 60 54.24 60 59 C56.04 59 52.08 59 48 59 C48 62.96 48 66.92 48 71 C43.05 71 38.1 71 33 71 C33 67.04 33 63.08 33 59 C27.06 59.33 21.12 59.66 15 60 C14.67 63.63 14.34 67.26 14 71 C9.38 71 4.76 71 0 71 C0 67.04 0 63.08 0 59 C-3.96 59 -7.92 59 -12 59 C-12 54.38 -12 49.76 -12 45 C-8.04 45 -4.08 45 0 45 C0 38.73 0 32.46 0 26 C-3.96 26 -7.92 26 -12 26 C-12 21.38 -12 16.76 -12 12 C-8.04 12 -4.08 12 0 12 C0 8.04 0 4.08 0 0 Z M14 27 C13.90013025 29.84335048 13.86122119 32.65697163 13.875 35.5 C13.87113281 36.29792969 13.86726563 37.09585938 13.86328125 37.91796875 C13.4910039 41.7683932 13.4910039 41.7683932 15 45 C16.34267413 45.08631874 17.68974322 45.10706473 19.03515625 45.09765625 C20.12775757 45.09390991 20.12775757 45.09390991 21.24243164 45.09008789 C22.63836548 45.07643188 22.63836548 45.07643188 24.0625 45.0625 C27.011875 45.041875 29.96125 45.02125 33 45 C33 38.73 33 32.46 33 26 C28.5759375 25.9690625 28.5759375 25.9690625 24.0625 25.9375 C23.13187744 25.928396 22.20125488 25.91929199 21.24243164 25.90991211 C20.14983032 25.90616577 20.14983032 25.90616577 19.03515625 25.90234375 C18.2862915 25.89710693 17.53742676 25.89187012 16.76586914 25.88647461 C14.97332261 25.80658248 14.97332261 25.80658248 14 27 Z " fill="#FEFEFE" transform="translate(368,269)"/>
</svg>
